# xmcd
#
# Track frame offsets: 
#        150
#        15182
#        28697
#        42446
#        57192
#        72906
#        92016
#        105979
#        124558
#        136755
#        152630
#        166083
#        179665
#        196193
#        208171
#        219115
#        233868
#        246910
#
# Disc length: 3495 seconds
#
# Revision: 0
# Processed by: cddbd v1.5.2PL0 Copyright (c) Steve Scherf et al.
# Submitted via: ExactAudioCopyFreeDBPlugin 1.0
#
DISCID=e70da512
DTITLE=Jools Holland - Piano
DYEAR=2016
DGENRE=Blues
TTITLE0=May
TTITLE1=Grand Hotel
TTITLE2=Last Date
TTITLE3=Bumble Boogie
TTITLE4=Dorothy
TTITLE5=Eruption
TTITLE6=Upright And Grand
TTITLE7=Christabel
TTITLE8=Midnight Hour Blues
TTITLE9=I Had It But It's All Gone Now
TTITLE10=How Long Blues
TTITLE11=Blue Lamp
TTITLE12=Romantic Ruin
TTITLE13=Bang And Pop
TTITLE14=Red Ragtime
TTITLE15=Strange Cargo
TTITLE16=Rool 'Em
TTITLE17=I'm In The Mood For Love
EXTD=
EXTT0=
EXTT1=
EXTT2=
EXTT3=
EXTT4=
EXTT5=
EXTT6=
EXTT7=
EXTT8=
EXTT9=
EXTT10=
EXTT11=
EXTT12=
EXTT13=
EXTT14=
EXTT15=
EXTT16=
EXTT17=
PLAYORDER=
